<mxfile host="app.diagrams.net" agent="Mozilla/5.0 (X11; Linux x86_64; rv:128.0) Gecko/20100101 Firefox/128.0" version="26.0.6">
  <diagram id="C5RBs43oDa-KdzZeNtuy" name="Page-1">
    <mxGraphModel dx="1434" dy="791" grid="1" gridSize="10" guides="1" tooltips="1" connect="1" arrows="1" fold="1" page="1" pageScale="1" pageWidth="827" pageHeight="1169" math="0" shadow="0">
      <root>
        <mxCell id="WIyWlLk6GJQsqaUBKTNV-0" />
        <mxCell id="WIyWlLk6GJQsqaUBKTNV-1" parent="WIyWlLk6GJQsqaUBKTNV-0" />
        <mxCell id="fz3CZcHxYW9Oh3gJV04Z-12" value="" style="whiteSpace=wrap;html=1;aspect=fixed;fillColor=none;" vertex="1" parent="WIyWlLk6GJQsqaUBKTNV-1">
          <mxGeometry x="207.9" y="40" width="340" height="340" as="geometry" />
        </mxCell>
        <mxCell id="fz3CZcHxYW9Oh3gJV04Z-0" value="End User" style="shape=umlActor;verticalLabelPosition=bottom;verticalAlign=top;html=1;outlineConnect=0;" vertex="1" parent="WIyWlLk6GJQsqaUBKTNV-1">
          <mxGeometry x="260" y="110" width="30" height="60" as="geometry" />
        </mxCell>
        <mxCell id="fz3CZcHxYW9Oh3gJV04Z-39" style="edgeStyle=orthogonalEdgeStyle;rounded=0;orthogonalLoop=1;jettySize=auto;html=1;entryX=0;entryY=0.5;entryDx=0;entryDy=0;flowAnimation=1;" edge="1" parent="WIyWlLk6GJQsqaUBKTNV-1" source="fz3CZcHxYW9Oh3gJV04Z-3" target="fz3CZcHxYW9Oh3gJV04Z-28">
          <mxGeometry relative="1" as="geometry">
            <Array as="points">
              <mxPoint x="315" y="305" />
              <mxPoint x="315" y="585" />
            </Array>
          </mxGeometry>
        </mxCell>
        <mxCell id="fz3CZcHxYW9Oh3gJV04Z-40" value="valleysoft-eg.com =&amp;gt; 10.5.0.22:8080&lt;br&gt;example-1.valleysoft-eg.com =&amp;gt; 10.5.0.22:8081&lt;br&gt;example-2.valleysoft-eg.com =&amp;gt; 10.5.0.22:8082&lt;br&gt;example-3.valleysoft-eg.com =&amp;gt; 10.5.0.22:8083" style="edgeLabel;html=1;align=center;verticalAlign=middle;resizable=0;points=[];" vertex="1" connectable="0" parent="fz3CZcHxYW9Oh3gJV04Z-39">
          <mxGeometry x="-0.2124" y="1" relative="1" as="geometry">
            <mxPoint as="offset" />
          </mxGeometry>
        </mxCell>
        <mxCell id="fz3CZcHxYW9Oh3gJV04Z-3" value="Valleysoft Proxy Server" style="verticalLabelPosition=bottom;sketch=0;aspect=fixed;html=1;verticalAlign=top;strokeColor=none;align=center;outlineConnect=0;shape=mxgraph.citrix.proxy_server;" vertex="1" parent="WIyWlLk6GJQsqaUBKTNV-1">
          <mxGeometry x="339.65" y="260" width="76.5" height="90" as="geometry" />
        </mxCell>
        <mxCell id="fz3CZcHxYW9Oh3gJV04Z-14" style="edgeStyle=orthogonalEdgeStyle;rounded=0;orthogonalLoop=1;jettySize=auto;html=1;flowAnimation=1;" edge="1" parent="WIyWlLk6GJQsqaUBKTNV-1" source="fz3CZcHxYW9Oh3gJV04Z-4" target="fz3CZcHxYW9Oh3gJV04Z-3">
          <mxGeometry relative="1" as="geometry" />
        </mxCell>
        <mxCell id="fz3CZcHxYW9Oh3gJV04Z-15" value="&lt;font style=&quot;font-size: 14px;&quot;&gt;41.33.228.166&lt;/font&gt;" style="edgeLabel;html=1;align=center;verticalAlign=middle;resizable=0;points=[];" vertex="1" connectable="0" parent="fz3CZcHxYW9Oh3gJV04Z-14">
          <mxGeometry x="-0.0557" y="-2" relative="1" as="geometry">
            <mxPoint as="offset" />
          </mxGeometry>
        </mxCell>
        <mxCell id="fz3CZcHxYW9Oh3gJV04Z-4" value="" style="points=[];aspect=fixed;html=1;align=center;shadow=0;dashed=0;fillColor=#FF6A00;strokeColor=none;shape=mxgraph.alibaba_cloud.dns_domain_name_system;" vertex="1" parent="WIyWlLk6GJQsqaUBKTNV-1">
          <mxGeometry x="470" y="182.55" width="55.800000000000004" height="54.900000000000006" as="geometry" />
        </mxCell>
        <mxCell id="fz3CZcHxYW9Oh3gJV04Z-5" style="edgeStyle=orthogonalEdgeStyle;rounded=0;orthogonalLoop=1;jettySize=auto;html=1;exitX=0.5;exitY=0.5;exitDx=0;exitDy=0;exitPerimeter=0;entryX=0.484;entryY=0.036;entryDx=0;entryDy=0;entryPerimeter=0;flowAnimation=1;" edge="1" parent="WIyWlLk6GJQsqaUBKTNV-1" source="fz3CZcHxYW9Oh3gJV04Z-0" target="fz3CZcHxYW9Oh3gJV04Z-4">
          <mxGeometry relative="1" as="geometry" />
        </mxCell>
        <mxCell id="fz3CZcHxYW9Oh3gJV04Z-13" value="&lt;font style=&quot;font-size: 14px;&quot;&gt;*.valleysoft-eg.com&lt;/font&gt;" style="edgeLabel;html=1;align=center;verticalAlign=middle;resizable=0;points=[];" vertex="1" connectable="0" parent="fz3CZcHxYW9Oh3gJV04Z-5">
          <mxGeometry x="-0.0553" y="-3" relative="1" as="geometry">
            <mxPoint as="offset" />
          </mxGeometry>
        </mxCell>
        <mxCell id="fz3CZcHxYW9Oh3gJV04Z-17" value="&lt;div&gt;&lt;font style=&quot;font-size: 18px;&quot;&gt;Public Area&lt;/font&gt;&lt;/div&gt;" style="text;html=1;align=center;verticalAlign=middle;whiteSpace=wrap;rounded=0;fillColor=#d5e8d4;strokeColor=#82b366;" vertex="1" parent="WIyWlLk6GJQsqaUBKTNV-1">
          <mxGeometry x="60" y="140" width="130" height="60" as="geometry" />
        </mxCell>
        <mxCell id="fz3CZcHxYW9Oh3gJV04Z-18" value="" style="whiteSpace=wrap;html=1;aspect=fixed;fillColor=none;movable=0;resizable=0;rotatable=0;deletable=0;editable=0;locked=1;connectable=0;" vertex="1" parent="WIyWlLk6GJQsqaUBKTNV-1">
          <mxGeometry x="207.9" y="440" width="340" height="340" as="geometry" />
        </mxCell>
        <mxCell id="fz3CZcHxYW9Oh3gJV04Z-26" value="&lt;div&gt;&lt;font style=&quot;font-size: 18px;&quot;&gt;Local Area&lt;/font&gt;&lt;/div&gt;" style="text;html=1;align=center;verticalAlign=middle;whiteSpace=wrap;rounded=0;fillColor=#d5e8d4;strokeColor=#82b366;" vertex="1" parent="WIyWlLk6GJQsqaUBKTNV-1">
          <mxGeometry x="60" y="540" width="130" height="60" as="geometry" />
        </mxCell>
        <mxCell id="fz3CZcHxYW9Oh3gJV04Z-27" value="Prod databases&lt;br&gt;10.5.0.21" style="image;html=1;image=img/lib/clip_art/computers/Database_128x128.png" vertex="1" parent="WIyWlLk6GJQsqaUBKTNV-1">
          <mxGeometry x="220" y="680" width="70" height="50" as="geometry" />
        </mxCell>
        <mxCell id="fz3CZcHxYW9Oh3gJV04Z-30" style="edgeStyle=orthogonalEdgeStyle;rounded=0;orthogonalLoop=1;jettySize=auto;html=1;flowAnimation=1;" edge="1" parent="WIyWlLk6GJQsqaUBKTNV-1" source="fz3CZcHxYW9Oh3gJV04Z-28" target="fz3CZcHxYW9Oh3gJV04Z-29">
          <mxGeometry relative="1" as="geometry" />
        </mxCell>
        <mxCell id="fz3CZcHxYW9Oh3gJV04Z-31" style="edgeStyle=orthogonalEdgeStyle;rounded=0;orthogonalLoop=1;jettySize=auto;html=1;flowAnimation=1;" edge="1" parent="WIyWlLk6GJQsqaUBKTNV-1" source="fz3CZcHxYW9Oh3gJV04Z-28" target="fz3CZcHxYW9Oh3gJV04Z-27">
          <mxGeometry relative="1" as="geometry" />
        </mxCell>
        <mxCell id="fz3CZcHxYW9Oh3gJV04Z-28" value="Docker Containers&lt;br&gt;10.5.0.22" style="shape=image;html=1;verticalAlign=top;verticalLabelPosition=bottom;labelBackgroundColor=#ffffff;imageAspect=0;aspect=fixed;image=https://cdn1.iconfinder.com/data/icons/social-media-2106/24/social_media_social_media_logo_docker-128.png" vertex="1" parent="WIyWlLk6GJQsqaUBKTNV-1">
          <mxGeometry x="335" y="545" width="79" height="79" as="geometry" />
        </mxCell>
        <mxCell id="fz3CZcHxYW9Oh3gJV04Z-29" value="alfresco File Storage&lt;br&gt;10.5.0.23" style="verticalLabelPosition=bottom;sketch=0;aspect=fixed;html=1;verticalAlign=top;strokeColor=none;align=center;outlineConnect=0;shape=mxgraph.citrix.file_server;" vertex="1" parent="WIyWlLk6GJQsqaUBKTNV-1">
          <mxGeometry x="470" y="675" width="43.92" height="60" as="geometry" />
        </mxCell>
      </root>
    </mxGraphModel>
  </diagram>
</mxfile>
